<svg width="399" height="290" viewBox="0 0 399 290" fill="none" xmlns="http://www.w3.org/2000/svg">
<line x1="86.1114" y1="101.513" x2="156.111" y2="117.513" stroke="#5FFFD7"/>
<line x1="61.6142" y1="231.682" x2="155.614" y2="117.682" stroke="#5FFFD7"/>
<line x1="225.269" y1="74.4216" x2="156.269" y2="118.422" stroke="#5FFFD7"/>
<line x1="178.533" y1="178.179" x2="155.533" y2="118.179" stroke="#5FFFD7"/>
<line x1="291.591" y1="248.287" x2="251.591" y2="191.287" stroke="#5FFFD7"/>
<line x1="179.07" y1="177.505" x2="250.07" y2="187.505" stroke="#5FFFD7"/>
<line x1="226.488" y1="80.8906" x2="250.488" y2="187.891" stroke="#5FFFD7"/>
<line x1="306.495" y1="145.069" x2="292.495" y2="246.069" stroke="#5FFFD7"/>
<line x1="332.638" y1="289.345" x2="291.638" y2="246.345" stroke="#5FFFD7"/>
<line x1="398.097" y1="225.49" x2="292.097" y2="246.49" stroke="#5FFFD7"/>
<line x1="305.92" y1="144.507" x2="397.92" y2="129.507" stroke="#5FFFD7"/>
<line x1="305.668" y1="145.374" x2="225.668" y2="74.374" stroke="#5FFFD7"/>
<line x1="313.191" y1="38.462" x2="226.191" y2="74.462" stroke="#5FFFD7"/>
<line x1="312.575" y1="38.264" x2="289.575" y2="1.26397" stroke="#5FFFD7"/>
<line x1="397.746" y1="88.431" x2="312.746" y2="38.431" stroke="#5FFFD7"/>
<line x1="85.603" y1="101.696" x2="134.603" y2="37.696" stroke="#5FFFD7"/>
<line x1="225.825" y1="72.4684" x2="134.825" y2="38.4684" stroke="#5FFFD7"/>
<line x1="125.483" y1="0.869545" x2="135.483" y2="37.8695" stroke="#5FFFD7"/>
<line x1="85.763" y1="102.44" x2="20.763" y2="67.4402" stroke="#5FFFD7"/>
<line x1="0.476463" y1="0.848398" x2="21.4765" y2="66.8484" stroke="#5FFFD7"/>
<line x1="86.3297" y1="102.376" x2="21.3297" y2="159.376" stroke="#5FFFD7"/>
<line x1="20.4359" y1="158.755" x2="61.4359" y2="231.755" stroke="#5FFFD7"/>
<line x1="20.0586" y1="158.503" x2="181.059" y2="177.503" stroke="#5FFFD7"/>
<line x1="162.054" y1="221.497" x2="61.0541" y2="232.497" stroke="#5FFFD7"/>
<line x1="120.656" y1="289.362" x2="60.6556" y2="232.363" stroke="#5FFFD7"/>
<line x1="161.535" y1="220.816" x2="178.535" y2="177.816" stroke="#5FFFD7"/>
<line x1="162.09" y1="220.508" x2="288.09" y2="243.508" stroke="#5FFFD7"/>
<line x1="162.497" y1="220.942" x2="170.497" y2="288.942" stroke="#5FFFD7"/>
<rect x="149.5" y="111.5" width="13" height="13" rx="6.5" fill="black" stroke="#5FFFD7"/>
<rect x="128.5" y="31.5" width="13" height="13" rx="6.5" fill="black" stroke="#5FFFD7"/>
<rect x="14.5" y="61.5" width="13" height="13" rx="6.5" fill="black" stroke="#5FFFD7"/>
<rect x="14.5" y="152.5" width="13" height="13" rx="6.5" fill="black" stroke="#5FFFD7"/>
<rect x="306.5" y="31.5" width="13" height="13" rx="6.5" fill="black" stroke="#5FFFD7"/>
<rect x="243.5" y="181.5" width="13" height="13" rx="6.5" fill="black" stroke="#5FFFD7"/>
<rect x="155.5" y="214.5" width="13" height="13" rx="6.5" fill="black" stroke="#5FFFD7"/>
<rect x="299.5" y="138.5" width="13" height="13" rx="6.5" fill="black" stroke="#5FFFD7"/>
<rect x="206.5" y="56.5" width="36.3288" height="36.3288" rx="18.1644" fill="black" stroke="#5FFFD7"/>
<path d="M220.741 73.026L224.757 69.039L228.774 73.0281L231.111 70.7081L224.757 64.399L218.404 70.7061L220.741 73.026ZM214.417 74.6644L216.754 72.3444L219.091 74.6644L216.754 76.9844L214.417 74.6644ZM220.741 76.3028L224.757 80.2899L228.774 76.3007L231.111 78.6197L224.757 84.9298L218.404 78.6228L218.401 78.6197L220.741 76.3028ZM230.422 74.6644L232.759 72.3444L235.096 74.6644L232.759 76.9844L230.422 74.6644ZM227.126 74.6624H227.128V74.6644L224.757 77.0193L222.388 74.6685L222.384 74.6644L222.388 74.6613L222.802 74.2487L223.004 74.0485L224.757 72.3095L227.127 74.6634L227.126 74.6624Z" fill="#5FFFD7"/>
<rect x="67.5" y="81.5" width="36.3288" height="36.3288" rx="18.1644" fill="black" stroke="#5FFFD7"/>
<path fill-rule="evenodd" clip-rule="evenodd" d="M82.5757 99.6662L88.0246 105.195L91.464 101.706C92.079 101.144 93.0199 101.169 93.6051 101.763C94.1903 102.356 94.2149 103.311 93.6612 103.935L89.1224 108.54C88.5127 109.149 87.5349 109.149 86.9252 108.54L80.3769 101.895V105.845C80.3769 106.717 79.6803 107.423 78.8211 107.423C77.9619 107.423 77.2654 106.717 77.2654 105.845V93.4824C77.2654 92.6107 77.9619 91.9041 78.8211 91.9041C79.6803 91.9041 80.3769 92.6107 80.3769 93.4824V97.4321L86.9244 90.7887C87.5339 90.18 88.5121 90.18 89.1215 90.7887L93.6637 95.3934C94.2175 96.0173 94.1928 96.9718 93.6077 97.5655C93.0225 98.1592 92.0816 98.1842 91.4666 97.6224L88.0272 94.1331L82.5757 99.6662ZM88.0272 98.0862C87.3972 98.0859 86.829 98.4706 86.5877 99.061C86.3464 99.6514 86.4794 100.331 86.9248 100.783C87.3701 101.235 88.0401 101.371 88.6222 101.126C89.2042 100.882 89.5838 100.305 89.5838 99.6662C89.584 99.2472 89.4201 98.8452 89.1282 98.5487C88.8363 98.2523 88.4402 98.0856 88.0272 98.0853V98.0862Z" fill="#5FFFD7"/>
<rect x="42.5" y="213.5" width="36.3288" height="36.3288" rx="18.1644" fill="black" stroke="#5FFFD7"/>
<path d="M57.3138 222.599C57.0344 222.559 57.0211 222.546 57.1542 222.533C57.4069 222.493 57.9923 222.546 58.4048 222.639C59.3626 222.865 60.2274 223.451 61.1454 224.475L61.3849 224.755L61.7308 224.701C63.2075 224.462 64.7242 224.648 65.9881 225.234C66.334 225.393 66.8795 225.713 66.946 225.792C66.9726 225.819 67.0125 225.992 67.0391 226.165C67.1323 226.79 67.0923 227.256 66.8928 227.615C66.7863 227.815 66.7863 227.868 66.8529 228.041C66.9061 228.174 67.0657 228.267 67.2121 228.267C67.5314 228.267 67.864 227.761 68.0236 227.056L68.0901 226.777L68.2099 226.91C68.8884 227.668 69.4206 228.719 69.5004 229.464L69.527 229.664L69.4073 229.491C69.2077 229.185 69.0214 228.985 68.7687 228.812C68.3163 228.506 67.8374 228.413 66.5735 228.347C65.4293 228.28 64.7774 228.187 64.1388 227.974C63.0479 227.615 62.4891 227.149 61.1986 225.433C60.6265 224.675 60.2673 224.262 59.9081 223.917C59.1232 223.158 58.3382 222.759 57.3138 222.599Z" fill="#5FFFD7"/>
<path d="M67.2253 224.289C67.2519 223.784 67.3184 223.451 67.4648 223.145C67.518 223.025 67.5712 222.919 67.5845 222.919C67.5978 222.919 67.5712 223.012 67.5313 223.118C67.4249 223.411 67.4116 223.823 67.4781 224.289C67.5712 224.888 67.6111 224.968 68.2497 225.619C68.5424 225.925 68.8883 226.311 69.0214 226.471L69.2475 226.764L69.0214 226.551C68.742 226.285 68.1034 225.779 67.957 225.713C67.8639 225.659 67.8506 225.659 67.7841 225.726C67.7309 225.779 67.7175 225.859 67.7175 226.245C67.7042 226.843 67.6244 227.216 67.4249 227.602C67.3184 227.801 67.3051 227.761 67.3982 227.535C67.4648 227.362 67.4781 227.283 67.4781 226.71C67.4781 225.553 67.345 225.274 66.5335 224.808C66.3339 224.688 65.988 224.515 65.7885 224.422C65.5756 224.329 65.4159 224.249 65.4292 224.249C65.4558 224.223 66.2408 224.449 66.5468 224.582C67.0124 224.768 67.0923 224.781 67.1455 224.768C67.1854 224.728 67.212 224.622 67.2253 224.289Z" fill="#5FFFD7"/>
<path d="M57.8592 226.272C57.3005 225.5 56.9413 224.303 57.0211 223.412L57.0477 223.132L57.1807 223.159C57.4202 223.199 57.8326 223.358 58.0322 223.478C58.5644 223.797 58.8038 224.236 59.03 225.327C59.0965 225.647 59.1897 226.019 59.2296 226.139C59.2961 226.338 59.5489 226.804 59.7617 227.097C59.9081 227.31 59.8149 227.416 59.4823 227.39C58.9768 227.336 58.2983 226.871 57.8592 226.272Z" fill="#5FFFD7"/>
<path d="M66.5468 232.059C63.9126 230.995 62.9813 230.077 62.9813 228.52C62.9813 228.294 62.9946 228.108 62.9946 228.108C63.0079 228.108 63.1011 228.188 63.2208 228.281C63.753 228.707 64.3516 228.893 66.0147 229.132C66.9859 229.279 67.5446 229.385 68.0502 229.558C69.66 230.09 70.6578 231.181 70.8973 232.658C70.9638 233.084 70.9239 233.895 70.8174 234.321C70.7243 234.653 70.4582 235.265 70.3917 235.279C70.3784 235.279 70.3518 235.212 70.3518 235.106C70.3252 234.547 70.0458 234.015 69.5802 233.602C69.0214 233.123 68.303 232.764 66.5468 232.059Z" fill="#5FFFD7"/>
<path d="M64.6843 232.498C64.6577 232.298 64.5912 232.046 64.5512 231.939L64.4847 231.74L64.6045 231.886C64.7774 232.085 64.9104 232.325 65.0302 232.658C65.1233 232.91 65.1233 232.99 65.1233 233.403C65.1233 233.802 65.11 233.895 65.0302 234.121C64.8971 234.48 64.7375 234.733 64.4714 235.012C63.9925 235.505 63.3672 235.771 62.4758 235.89C62.3161 235.904 61.8638 235.944 61.4647 235.97C60.4669 236.023 59.8017 236.13 59.203 236.343C59.1232 236.369 59.0433 236.396 59.03 236.383C59.0034 236.356 59.4159 236.117 59.7485 235.957C60.2141 235.731 60.693 235.611 61.7441 235.425C62.2629 235.345 62.7951 235.239 62.9281 235.185C64.2452 234.773 64.8971 233.748 64.6843 232.498Z" fill="#5FFFD7"/>
<path d="M65.8952 234.64C65.5493 233.881 65.4695 233.163 65.6558 232.484C65.6824 232.418 65.709 232.351 65.7356 232.351C65.7622 232.351 65.842 232.391 65.9219 232.444C66.0815 232.551 66.4141 232.737 67.2656 233.203C68.3432 233.788 68.9552 234.24 69.3809 234.759C69.7534 235.212 69.9796 235.73 70.086 236.369C70.1526 236.728 70.1126 237.593 70.0195 237.952C69.7268 239.083 69.0616 239.988 68.0904 240.507C67.9441 240.586 67.8243 240.64 67.811 240.64C67.7977 240.64 67.8509 240.507 67.9308 240.347C68.2501 239.668 68.29 239.017 68.0505 238.285C67.9042 237.832 67.5982 237.287 66.9862 236.369C66.2545 235.305 66.0815 235.025 65.8952 234.64Z" fill="#5FFFD7"/>
<path d="M55.9836 238.712C56.9681 237.887 58.1788 237.302 59.2963 237.115C59.7753 237.035 60.5735 237.062 61.0126 237.182C61.7177 237.368 62.3563 237.767 62.6889 238.259C63.0082 238.738 63.1545 239.151 63.3009 240.069C63.3541 240.428 63.4206 240.801 63.4339 240.88C63.5403 241.359 63.7532 241.732 64.0193 241.931C64.4317 242.237 65.1501 242.251 65.8553 241.985C65.975 241.945 66.0814 241.905 66.0814 241.918C66.108 241.945 65.7488 242.184 65.5094 242.304C65.1767 242.477 64.9107 242.53 64.5515 242.53C63.9129 242.53 63.3674 242.197 62.9284 241.532C62.8352 241.399 62.649 241.013 62.4893 240.654C62.0237 239.577 61.7842 239.257 61.2387 238.898C60.7598 238.592 60.1478 238.526 59.6822 238.752C59.0702 239.044 58.9105 239.829 59.3362 240.308C59.5092 240.508 59.8285 240.667 60.0946 240.707C60.5868 240.774 61.0126 240.388 61.0126 239.896C61.0126 239.577 60.8928 239.39 60.5735 239.244C60.1478 239.058 59.6822 239.271 59.6955 239.683C59.6955 239.856 59.7753 239.962 59.9482 240.042C60.0547 240.095 60.0547 240.095 59.9748 240.082C59.589 240.002 59.4959 239.523 59.8019 239.217C60.1744 238.845 60.9593 239.004 61.2254 239.523C61.3319 239.736 61.3452 240.162 61.252 240.428C61.0259 241.013 60.3873 241.319 59.7354 241.146C59.2963 241.027 59.1101 240.907 58.5779 240.361C57.6466 239.404 57.2874 239.217 55.957 239.018L55.7042 238.978L55.9836 238.712Z" fill="#5FFFD7"/>
<path fill-rule="evenodd" clip-rule="evenodd" d="M48.9855 217.305C52.0854 221.07 56.8616 226.924 57.101 227.243C57.3006 227.509 57.2208 227.762 56.8882 227.948C56.7019 228.055 56.3161 228.161 56.1298 228.161C55.917 228.161 55.6642 228.055 55.4912 227.882C55.3715 227.762 54.8526 227.004 53.6819 225.181C52.7905 223.784 52.0322 222.627 52.0189 222.613C51.9656 222.587 51.9656 222.587 53.5887 225.487C54.6132 227.31 54.9458 227.962 54.9458 228.041C54.9458 228.214 54.8925 228.307 54.6797 228.547C54.3205 228.946 54.1608 229.398 54.0411 230.343C53.908 231.394 53.5488 232.139 52.5244 233.403C51.9257 234.148 51.8326 234.281 51.6863 234.587C51.5 234.959 51.4468 235.172 51.4202 235.651C51.3936 236.157 51.4468 236.476 51.5931 236.955C51.7262 237.381 51.8725 237.66 52.2317 238.206C52.5377 238.685 52.724 239.044 52.724 239.177C52.724 239.283 52.7506 239.283 53.2295 239.177C54.3737 238.911 55.3183 238.458 55.8371 237.9C56.1564 237.554 56.2363 237.368 56.2363 236.889C56.2363 236.583 56.223 236.516 56.1431 236.33C56.0101 236.037 55.7573 235.798 55.2118 235.425C54.4934 234.933 54.1874 234.534 54.1076 234.002C54.0411 233.549 54.1209 233.243 54.52 232.405C54.9325 231.54 55.0389 231.181 55.1054 230.303C55.1453 229.744 55.2118 229.518 55.3715 229.345C55.5445 229.159 55.6908 229.092 56.1032 229.039C56.7817 228.946 57.2208 228.773 57.5667 228.44C57.8727 228.161 58.0057 227.882 58.019 227.469L58.0323 227.163L57.8594 226.977C57.2341 226.259 48.5731 216.733 48.5332 216.733C48.5199 216.733 48.7327 216.986 48.9855 217.305ZM53.0699 236.223C53.2162 235.971 53.1364 235.651 52.8969 235.492C52.6708 235.345 52.3249 235.412 52.3249 235.611C52.3249 235.665 52.3515 235.718 52.4313 235.744C52.551 235.811 52.5643 235.877 52.4712 236.024C52.3781 236.17 52.3781 236.303 52.4978 236.396C52.6841 236.543 52.9368 236.463 53.0699 236.223Z" fill="#5FFFD7"/>
<path fill-rule="evenodd" clip-rule="evenodd" d="M58.4581 229.226C58.1388 229.319 57.8328 229.665 57.7396 230.011C57.6864 230.224 57.713 230.61 57.8062 230.729C57.9525 230.916 58.0856 230.969 58.4581 230.969C59.1898 230.969 59.8151 230.649 59.8816 230.264C59.9481 229.944 59.6687 229.505 59.2829 229.306C59.0834 229.199 58.6709 229.159 58.4581 229.226ZM59.3095 229.891C59.416 229.731 59.3761 229.558 59.1765 229.439C58.8173 229.213 58.2718 229.399 58.2718 229.745C58.2718 229.918 58.5512 230.104 58.8173 230.104C58.9902 230.104 59.2297 229.998 59.3095 229.891Z" fill="#5FFFD7"/>
<rect x="162.5" y="159.5" width="36.3288" height="36.3288" rx="18.1644" fill="black" stroke="#5FFFD7"/>
<path d="M185.042 178.622C184.613 180.999 182.618 182.797 180.219 182.797C177.507 182.797 175.309 180.499 175.309 177.664C175.309 174.829 177.507 172.532 180.219 172.532C182.618 172.532 184.613 174.33 185.042 176.707H189.997C189.535 171.486 185.334 167.399 180.219 167.399C174.795 167.399 170.399 171.995 170.399 177.664C170.399 183.334 174.796 187.93 180.219 187.93C185.334 187.93 189.535 183.843 189.997 178.622H185.042Z" fill="#5FFFD7"/>
<rect x="269.5" y="225.5" width="36.3288" height="36.3288" rx="18.1644" fill="black" stroke="#5FFFD7"/>
<path d="M299.641 239.124L293.64 247.723H295.482L301.515 239.124H299.641Z" fill="#5FFFD7"/>
<path d="M295.674 239.124L297.44 241.658L296.519 243.04L293.793 239.124H295.674Z" fill="#5FFFD7"/>
<path d="M299.82 247.723L297.862 244.921L298.783 243.577L301.663 247.723H299.82Z" fill="#5FFFD7"/>
<path fill-rule="evenodd" clip-rule="evenodd" d="M291.49 239.124H293.102V247.723H291.49V247.401C291.024 247.656 290.489 247.8 289.921 247.8C288.116 247.8 286.653 246.344 286.653 244.547C286.653 242.75 288.116 241.293 289.921 241.293C290.489 241.293 291.024 241.438 291.49 241.692V239.124ZM289.904 246.372C290.926 246.372 291.755 245.547 291.755 244.53C291.755 243.512 290.926 242.687 289.904 242.687C288.881 242.687 288.053 243.512 288.053 244.53C288.053 245.547 288.881 246.372 289.904 246.372Z" fill="#5FFFD7"/>
<path d="M286.813 239.124L280.818 247.723H282.697L288.687 239.124H286.813Z" fill="#5FFFD7"/>
<path d="M282.699 239.124L284.58 241.735L283.543 243.194L280.741 239.124H282.699Z" fill="#5FFFD7"/>
<path fill-rule="evenodd" clip-rule="evenodd" d="M278.668 239.124H280.281V247.723H278.668V247.401C278.203 247.656 277.668 247.8 277.099 247.8C275.295 247.8 273.831 246.344 273.831 244.547C273.831 242.75 275.295 241.293 277.099 241.293C277.668 241.293 278.203 241.438 278.668 241.692V239.124ZM277.082 246.372C278.105 246.372 278.933 245.547 278.933 244.53C278.933 243.512 278.105 242.687 277.082 242.687C276.06 242.687 275.231 243.512 275.231 244.53C275.231 245.547 276.06 246.372 277.082 246.372Z" fill="#5FFFD7"/>
</svg>
